<svg width="24" height="24" viewBox="0 0 24 24" fill="none" xmlns="http://www.w3.org/2000/svg">
<path fill-rule="evenodd" clip-rule="evenodd" d="M12 6.7499C11.9998 5.9299 12.1917 5.12126 12.5602 4.38876C12.9288 3.65626 13.4638 3.02028 14.1225 2.53179C14.7811 2.0433 15.545 1.71587 16.3529 1.57575C17.1608 1.43563 17.9904 1.48671 18.775 1.7249C18.899 1.76247 19.0112 1.83153 19.1006 1.92535C19.19 2.01917 19.2535 2.13455 19.285 2.26024C19.3166 2.38593 19.315 2.51764 19.2804 2.64254C19.2459 2.76744 19.1796 2.88126 19.088 2.9729L15.768 6.2919C15.831 6.7669 16.044 7.2259 16.409 7.5909C16.774 7.9559 17.233 8.1689 17.709 8.2309L21.027 4.9119C21.1187 4.8203 21.2325 4.754 21.3574 4.71947C21.4823 4.68494 21.614 4.68336 21.7397 4.71488C21.8654 4.7464 21.9807 4.80995 22.0746 4.89934C22.1684 4.98872 22.2374 5.10089 22.275 5.2249C22.5242 6.04576 22.5685 6.91518 22.4039 7.7571C22.2394 8.59902 21.8711 9.3878 21.3311 10.0544C20.7912 10.721 20.0961 11.2452 19.3068 11.581C18.5174 11.9169 17.6577 12.0542 16.803 11.9809C15.785 11.8949 14.933 12.0809 14.494 12.6149L7.34401 21.2999C7.05125 21.6537 6.68784 21.9424 6.27705 22.1476C5.86626 22.3528 5.41715 22.47 4.95847 22.4916C4.49979 22.5132 4.04165 22.4388 3.61338 22.2731C3.18511 22.1075 2.79616 21.8542 2.47143 21.5295C2.1467 21.2049 1.89334 20.816 1.72759 20.3877C1.56183 19.9595 1.48732 19.5014 1.50884 19.0427C1.53036 18.584 1.64742 18.1349 1.85254 17.724C2.05766 17.3132 2.34631 16.9497 2.70001 16.6569L11.384 9.5059C11.917 9.0659 12.104 8.2149 12.018 7.1969C12.0058 7.04822 11.9998 6.89909 12 6.7499ZM4.11701 19.1249C4.11701 18.926 4.19603 18.7352 4.33668 18.5946C4.47733 18.4539 4.6681 18.3749 4.86701 18.3749H4.87501C5.07392 18.3749 5.26469 18.4539 5.40534 18.5946C5.54599 18.7352 5.62501 18.926 5.62501 19.1249V19.1329C5.62501 19.3318 5.54599 19.5226 5.40534 19.6632C5.26469 19.8039 5.07392 19.8829 4.87501 19.8829H4.86701C4.6681 19.8829 4.47733 19.8039 4.33668 19.6632C4.19603 19.5226 4.11701 19.3318 4.11701 19.1329V19.1249Z" fill="black"/>
</svg>
